<?xml version="1.0" standalone="no"?>
<!DOCTYPE svg PUBLIC "-//W3C//DTD SVG 20010904//EN"
 "http://www.w3.org/TR/2001/REC-SVG-20010904/DTD/svg10.dtd">
<svg version="1.0" xmlns="http://www.w3.org/2000/svg"
 width="631.000000pt" height="631.000000pt" viewBox="0 0 631.000000 631.000000"
 preserveAspectRatio="xMidYMid meet">
<metadata>
Created by potrace 1.14, written by Peter Selinger 2001-2017
</metadata>
<g transform="translate(0.000000,631.000000) scale(0.100000,-0.100000)"
fill="#000000" stroke="none">
<path d="M2254 5246 l-987 -987 34 -36 c19 -19 60 -61 92 -92 l57 -56 -95 -95
-95 -95 100 -100 100 -100 -89 -88 -89 -89 178 -178 178 -177 -199 -199 c-110
-109 -199 -201 -199 -204 0 -4 38 -44 85 -90 l85 -85 -95 -95 -94 -95 99 -99
98 -98 -84 -83 c-46 -46 -84 -87 -84 -92 0 -4 438 -446 973 -981 l972 -972
979 979 978 978 -91 91 c-50 50 -91 94 -91 97 0 3 39 44 86 92 l86 86 -91 91
-91 91 92 93 93 92 -175 175 -175 175 208 208 c114 114 207 210 207 213 0 4
-34 40 -76 80 -41 41 -79 81 -84 91 -8 13 8 34 77 102 l87 87 -92 92 -92 92
90 90 c49 49 90 93 90 98 0 5 -443 452 -984 994 l-985 986 -987 -987z m2896
-991 c0 -3 -34 -40 -76 -82 l-76 -76 -881 881 -882 882 -877 -877 -877 -877
-76 75 -76 75 956 956 956 957 955 -955 c525 -524 954 -956 954 -959z m-1048
678 c472 -472 858 -862 858 -867 0 -5 -32 -40 -71 -78 l-71 -68 -781 780
c-429 429 -782 779 -783 778 -2 -2 -356 -356 -788 -787 l-785 -784 -80 78
c-45 43 -81 83 -81 89 0 12 1701 1715 1714 1716 5 0 396 -386 868 -857z m492
-1242 l-195 -195 -605 605 -604 604 -578 -578 -577 -577 -162 162 -163 162
773 773 772 773 767 -767 767 -767 -195 -195z m-298 -298 c-40 -40 -77 -73
-82 -73 -5 0 -240 231 -521 512 l-513 513 -485 -485 -485 -485 -75 75 -75 75
562 562 563 563 592 -592 592 -592 -73 -73z m-612 386 l499 -501 -71 -69 c-40
-38 -74 -69 -77 -69 -3 0 -190 185 -415 410 -225 226 -414 410 -420 410 -5 0
-186 -176 -401 -391 l-391 -391 -84 83 -84 83 468 468 c257 257 469 468 471
468 3 0 230 -225 505 -501z m-2117 178 l82 -84 -79 -78 -79 -79 -85 85 -85 84
77 77 c42 43 79 77 82 78 3 0 42 -38 87 -83z m3511 0 l72 -72 -75 -75 -75 -75
-74 75 -74 75 71 73 c39 39 74 72 77 72 3 -1 38 -33 78 -73z m-1473 -457 l399
-399 -376 -376 c-206 -206 -379 -375 -384 -375 -5 0 -188 179 -406 397 l-398
398 377 377 c208 208 380 378 383 378 3 0 185 -180 405 -400z m1293 277 l72
-72 -195 -195 -195 -195 -75 75 -75 75 192 192 c106 106 195 193 198 193 3 0
38 -33 78 -73z m-3054 -97 l160 -161 -79 -79 -79 -80 -158 158 c-87 86 -158
162 -158 167 0 10 140 154 150 155 3 0 77 -72 164 -160z m3131 -370 l-195
-195 -80 80 c-44 44 -80 82 -80 86 0 3 86 92 192 198 l191 192 84 -83 83 -83
-195 -195z m-3320 180 l160 -160 -70 -70 c-38 -38 -72 -70 -75 -70 -5 0 -292
284 -320 316 -4 5 130 143 140 144 3 0 77 -72 165 -160z m453 -73 l71 -73 -79
-79 -79 -78 -75 74 -75 74 77 78 c42 42 79 77 82 77 3 0 38 -33 78 -73z m2370
-60 l72 -72 -78 -78 -77 -77 -75 75 -74 75 74 75 c41 41 77 75 80 75 3 0 38
-33 78 -73z m-2183 -128 l83 -81 -80 -80 -80 -80 -79 80 c-43 44 -79 83 -79
88 0 8 140 153 149 154 2 0 41 -36 86 -81z m-377 -2 l72 -72 -73 -73 -73 -72
-61 60 c-97 96 -96 82 -17 161 37 38 71 69 74 69 3 0 38 -33 78 -73z m2755
-219 l-78 -78 -82 82 -83 82 23 25 c12 13 47 48 77 78 l54 53 83 -82 83 -83
-77 -77z m-380 161 l70 -70 -73 -74 -73 -73 -74 75 -74 76 68 69 c37 37 72 68
77 68 5 0 41 -32 79 -71z m-2552 -120 l71 -72 -186 -186 -186 -186 -75 75 -75
75 182 182 c101 101 186 183 191 183 4 0 40 -32 78 -71z m361 -6 c43 -43 78
-81 78 -85 0 -4 -31 -39 -69 -77 l-70 -70 -78 80 c-43 44 -80 82 -82 85 -5 5
129 144 139 144 2 0 40 -35 82 -77z m738 -357 l405 -406 395 395 395 395 75
-75 75 -75 -475 -475 -474 -474 -493 492 -492 492 76 77 c59 59 80 75 92 68 9
-5 198 -191 421 -414z m2166 -12 l-78 -77 -159 159 -159 159 77 77 78 78 159
-159 160 -160 -78 -77z m-523 306 l80 -80 -64 -69 c-35 -38 -70 -69 -77 -70
-8 0 -49 35 -92 79 l-78 80 70 70 c38 38 72 70 75 70 3 0 41 -36 86 -80z
m-2553 -120 l80 -79 -186 -187 -186 -186 -84 83 -84 84 182 182 c101 101 186
183 191 183 4 0 43 -36 87 -80z m802 -447 l506 -506 491 490 491 490 82 -83
c45 -46 80 -86 77 -88 -84 -91 -1116 -1115 -1122 -1113 -9 3 -1164 1154 -1174
1170 -5 8 124 147 137 147 3 0 233 -228 512 -507z m2005 313 c84 -85 153 -158
153 -162 0 -4 -31 -38 -69 -76 l-70 -69 -155 155 c-86 86 -156 159 -156 163 0
8 131 143 139 143 2 0 73 -69 158 -154z m-919 -602 c316 317 578 576 581 576
9 0 311 -304 311 -313 0 -5 -342 -351 -761 -770 l-760 -760 -760 759 -759 759
186 186 186 187 600 -600 600 -600 576 576z m-2297 339 c44 -43 79 -81 79 -85
0 -4 -33 -41 -74 -82 l-74 -75 -38 38 c-22 22 -59 60 -84 85 l-44 46 74 75
c41 41 76 75 79 75 2 0 39 -35 82 -77z m3484 -6 l74 -73 -73 -73 -73 -73 -75
75 -76 74 71 72 c40 39 73 71 75 71 2 0 37 -33 77 -73z m-177 -180 l72 -72
-859 -859 -858 -858 -846 847 c-466 466 -847 851 -847 854 0 4 34 40 75 81
l75 74 770 -769 c424 -424 774 -771 778 -773 4 -1 356 347 782 773 426 426
777 775 780 775 3 0 38 -33 78 -73z m189 -189 l82 -81 -943 -944 c-518 -519
-947 -943 -952 -943 -5 0 -434 425 -954 945 l-945 945 73 73 72 72 865 -865
c841 -841 865 -864 884 -846 10 9 403 402 872 871 470 470 856 854 859 855 2
0 42 -37 87 -82z"/>
</g>
</svg>
